<?xml version="1.0" encoding="utf-8"?>
<!-- Generator: Adobe Illustrator 19.1.0, SVG Export Plug-In . SVG Version: 6.00 Build 0)  -->
<!DOCTYPE svg PUBLIC "-//W3C//DTD SVG 1.1//EN" "http://www.w3.org/Graphics/SVG/1.1/DTD/svg11.dtd">
<svg version="1.1" xmlns="http://www.w3.org/2000/svg" xmlns:xlink="http://www.w3.org/1999/xlink" x="0px" y="0px"
	 viewBox="0 0 24 24" style="enable-background:new 0 0 24 24;" xml:space="preserve">
<style type="text/css">
	.st0{fill:#FFFFFF;}
</style>
<g id="Layer_2">
</g>
<g id="Layer_1">
	<path class="st0" d="M14.2,22.7c-2.6,0-5.2,0-7.8,0c-0.1,0-0.3,0-0.4,0c-0.4,0-0.7-0.3-0.7-0.7c0-0.1,0-0.3,0-0.4
		c0-3.4,0-6.8,0-10.3c0-0.1,0-0.2,0-0.3c0-0.4,0.3-0.7,0.8-0.7c0.1,0,0.2,0,0.3,0c5.2,0,10.5,0,15.7,0c0.8,0,1.1,0.3,1.1,1.2
		c0,3.4,0,6.8,0,10.2c0,0.1,0,0.2,0,0.2c0.1,0.6-0.4,0.9-0.9,0.9c-2.4,0-4.7,0-7.1,0C14.8,22.7,14.5,22.7,14.2,22.7z M7.6,20
		c1.1,0.1,12.8,0.1,13.1,0c0-1,0-2,0-3c0-0.1,0-0.2-0.1-0.3c-0.5-1-0.9-2.1-1.4-3.1c0-0.1-0.1-0.2-0.2-0.3c-1,0.3-1.9,0.7-2.8,1
		c-0.6,0.2-1,0.5-1.4,0.9c-0.6,0.7-1.3,1.3-1.9,2c-0.1,0.1-0.2,0.2-0.3,0.3c-0.5-0.6-1-1.2-1.5-1.8c-0.5-0.6-1-1.2-1.5-1.8
		C9,15,8.5,16.2,8,17.3c-0.1,0.3-0.3,0.6-0.4,1C7.6,18.8,7.6,19.4,7.6,20z"/>
	<path class="st0" d="M14.9,6.3C14.4,6.6,14,7,13.6,7.3c-0.4,0.3-0.8,0.6-1.2,1c-0.3,0.3-0.6,0.4-1,0.4c-1.8,0-3.6,0-5.4,0
		c-0.6,0-1.2,0.2-1.6,0.6C3.9,9.7,3.6,10.3,3.6,11c0,1.3,0,2.6,0,3.9c0,0.2,0,0.4-0.1,0.6c-0.2-0.4-0.3-0.8-0.5-1.2
		c-0.8-2-1.5-4-2.3-5.9C0.7,8.2,0.6,8.1,0.6,7.9c-0.1-0.5,0-0.8,0.4-1c0.4-0.2,0.7-0.3,1.1-0.4c1.4-0.5,2.8-1.1,4.2-1.6
		c1.5-0.6,2.9-1.1,4.4-1.7c1.4-0.5,2.7-1.1,4.1-1.6c0.5-0.2,1.1-0.4,1.5-0.6c0.5,0,0.7,0.2,0.8,0.6c0.9,2.2,1.7,4.5,2.6,6.7
		c0,0.1,0.1,0.2,0.1,0.3c-0.4,0.1-1.8,0.1-2.6,0.1C16.5,7.9,15.7,7.1,14.9,6.3z"/>
</g>
</svg>
